<svg version="1.2" xmlns="http://www.w3.org/2000/svg" viewBox="0 0 660 185" width="660" height="185">
	<title>StorageChain-Logo-svg</title>
	<style>
		.s0 { fill: #ffffff } 
		.s1 { fill: #ffa600 } 
	</style>
	<g id="Layer">
		<g id="Layer">
			<path id="Layer" class="s0" d="m22.1 144.9v-3.2c0-12.4 2-19.3 10.2-19.3h0.7c6.8 0 8.6 4.9 8.6 13.4h12.9v-2.8c0-15.5-7.5-21.7-22.2-21.7-16.1 0-23.3 9-23.3 30.4v3.2c0 21.4 7.1 30.4 23.3 30.4 14.7 0 22.2-6.2 22.2-21.5v-0.7h-12.9c0 6.7-2.3 11-8.6 11h-0.7c-8.3 0.1-10.2-6.8-10.2-19.2z"/>
			<path id="Layer" class="s0" d="m115.4 112.4v24.8h-18v-24.8h-12.9v62h12.9v-26.1h18v26.1h12.9v-62z"/>
			<path id="Layer" fill-rule="evenodd" class="s0" d="m188.6 112.2l15.5 62.1h-13.7l-3-13.3h-15.2l-2.9 13.3h-13.8l15.5-62.1zm-13.8 37.7h10.2l-5.1-22.8z"/>
			<path id="Layer" class="s0" d="m234.6 112.4h12.9v62h-12.9z"/>
			<path id="Layer" class="s0" d="m329.9 112.4h-12.2v26l0.4 12.5-19.9-38.5h-13.6v62h12.2v-26l-0.4-12.5 20 38.5h13.6v-62z"/>
			<path id="Layer" class="s0" d=""/>
			<path id="Layer" class="s0" d="m90.2 65.6c0 2.9-0.4 5.5-1.1 7.8-0.7 2.3-1.7 4.4-2.9 6.1q-1.8 2.7-4.2 4.5c-1.6 1.2-3.3 2.3-5 3.1-1.7 0.8-3.5 1.4-5.3 1.8q-2.7 0.6-5.1 0.6h-56.9v-14.7h56.8c2.8 0 5-0.8 6.6-2.5 1.6-1.7 2.4-3.9 2.4-6.7 0-1.4-0.2-2.6-0.6-3.7-0.4-1.1-1-2.1-1.8-2.9-0.8-0.8-1.7-1.5-2.8-1.9-1.1-0.5-2.4-0.7-3.7-0.7h-33.9c-2.4 0-4.9-0.4-7.7-1.3-2.8-0.8-5.3-2.2-7.7-4.1-2.4-1.9-4.3-4.4-5.9-7.4-1.6-3.1-2.3-6.8-2.3-11.2 0-4.4 0.8-8.2 2.3-11.2 1.6-3 3.5-5.5 5.9-7.4 2.4-1.9 4.9-3.3 7.7-4.1 2.8-0.9 5.3-1.3 7.7-1.3h50.1v14.6h-50.1c-2.8 0-5 0.9-6.5 2.6-1.6 1.7-2.4 3.9-2.4 6.7 0 2.8 0.8 5.1 2.4 6.7 1.6 1.6 3.7 2.5 6.5 2.5h34c1.6 0 3.3 0.3 5 0.6 1.8 0.4 3.5 1 5.3 1.8 1.8 0.8 3.4 1.9 5 3.1 1.6 1.3 3 2.8 4.2 4.6 1.2 1.8 2.2 3.8 2.9 6.1 0.7 2.4 1.1 5 1.1 7.9z"/>
			<path id="Layer" class="s0" d="m175 23h-32.5v66.5h-14.7v-66.5h-32.5v-14.7h79.7z"/>
			<path id="Layer" fill-rule="evenodd" class="s0" d="m270 56.6c0 5-0.8 9.5-2.6 13.7-1.7 4.2-4.1 7.7-7.1 10.8-3 3-6.6 5.4-10.7 7.1-4.1 1.7-8.6 2.5-13.5 2.5h-19.9c-4.9 0-9.4-0.8-13.5-2.5-4.2-1.7-7.7-4-10.8-7.1-3-3-5.4-6.6-7.1-10.8-1.7-4.1-2.6-8.7-2.6-13.7v-15.5c0-4.9 0.9-9.4 2.6-13.6 1.7-4.2 4.1-7.8 7.1-10.8 3-3 6.6-5.3 10.8-7 4.2-1.7 8.7-2.6 13.5-2.6h19.9c4.9 0 9.4 0.9 13.5 2.6 4.1 1.7 7.7 4 10.7 7 3 3 5.4 6.6 7.1 10.8 1.7 4.2 2.6 8.7 2.6 13.6zm-14.8-15.5c0-2.9-0.5-5.5-1.4-7.9-0.9-2.4-2.2-4.4-3.9-6.1-1.7-1.7-3.7-3-6.1-3.9-2.4-0.9-5-1.4-7.8-1.4h-19.9c-2.9 0-5.5 0.5-7.8 1.4-2.4 0.9-4.4 2.2-6.1 3.9-1.7 1.7-3 3.7-3.9 6.1-0.9 2.4-1.4 5-1.4 7.9v15.5c0 2.9 0.5 5.5 1.4 7.9 0.9 2.4 2.2 4.4 3.9 6.1 1.7 1.7 3.7 3 6.1 3.9 2.4 0.9 5 1.4 7.8 1.4h19.9c2.9 0 5.5-0.5 7.8-1.4 2.4-0.9 4.4-2.2 6.1-3.9 1.7-1.7 3-3.7 3.9-6.1 0.9-2.4 1.4-5 1.4-7.9z"/>
			<path id="Layer" class="s0" d="m365.7 35.6q0 5.1-1.2 9c-0.8 2.6-2 5-3.4 7-1.4 2-3.1 3.8-4.9 5.2-1.8 1.4-3.8 2.6-5.8 3.5-2 0.9-4.1 1.6-6.1 2-2.1 0.4-4 0.6-5.8 0.6l30.8 26.6h-22.8l-30.7-26.6h-10.6v-14.7h33.3q2.7-0.2 5.1-1.2c1.5-0.6 2.9-1.5 4-2.5 1.1-1.1 2-2.3 2.6-3.8q0.9-2.2 0.9-5.1v-9.3c0-0.8-0.1-1.5-0.3-1.9-0.2-0.4-0.5-0.7-0.8-1-0.3-0.2-0.7-0.3-1-0.4-0.4 0-0.7-0.1-1-0.1h-48.6v66.5h-14.7v-73.8c0-1 0.2-2 0.6-2.9 0.4-0.9 0.9-1.7 1.6-2.4 0.7-0.7 1.4-1.2 2.4-1.6 0.9-0.4 1.9-0.6 2.9-0.6h55.9c3.3 0 6.1 0.6 8.3 1.8 2.3 1.2 4.1 2.7 5.5 4.5 1.4 1.8 2.4 3.7 3.1 5.8 0.6 2.1 0.9 4 0.9 5.8v9.6z"/>
			<path id="Layer" fill-rule="evenodd" class="s0" d="m445.5 89.5v-19.9h-51.8v19.9h-14.7v-40.6c0-5.9 1-11.4 3.1-16.4 2-5 4.9-9.3 8.5-12.9q5.4-5.4 12.9-8.4c4.9-2 10.4-3 16.2-3h33.2c1 0 2 0.2 2.9 0.6 0.9 0.4 1.7 0.9 2.4 1.6 0.7 0.7 1.2 1.5 1.6 2.4 0.4 0.9 0.6 1.9 0.6 2.9v73.8zm0-34.7v-31.8h-25.9c-0.4 0-1.4 0.1-2.9 0.2-1.5 0.1-3.1 0.5-5 1q-2.8 0.7-6 2.4c-2.1 1.1-4.1 2.6-5.8 4.5-1.8 1.9-3.2 4.3-4.4 7.2-1.2 2.9-1.7 6.4-1.7 10.5v6z"/>
			<path id="Layer" class="s0" d="m557.4 82.1c0 1.1-0.2 2-0.6 2.9-0.4 0.9-0.9 1.7-1.6 2.4-0.7 0.7-1.4 1.2-2.4 1.6-0.9 0.4-1.9 0.6-2.9 0.6h-53.1c-1.4 0-2.8-0.2-4.4-0.5-1.6-0.3-3.1-0.8-4.7-1.5-1.5-0.7-3-1.6-4.4-2.6-1.4-1.1-2.6-2.4-3.7-3.9-1.1-1.5-1.9-3.3-2.6-5.3-0.6-2-1-4.3-1-6.8v-39.9c0-1.4 0.2-2.8 0.5-4.4 0.3-1.6 0.8-3.1 1.5-4.6 0.7-1.5 1.6-3 2.7-4.4 1.1-1.4 2.4-2.6 3.9-3.7 1.5-1.1 3.3-1.9 5.3-2.6 2-0.6 4.3-1 6.8-1h59.9v14.6h-59.9c-1.9 0-3.4 0.5-4.4 1.5q-1.5 1.5-1.5 4.5v39.8c0 1.9 0.5 3.4 1.6 4.4 1 1 2.5 1.6 4.4 1.6h45.8v-18.5h-39.2v-14.8h46.6c1.1 0 2 0.2 2.9 0.6 0.9 0.4 1.7 0.9 2.4 1.6 0.7 0.7 1.2 1.5 1.6 2.4 0.4 0.9 0.6 1.8 0.6 2.9v33.1z"/>
			<path id="Layer" class="s0" d="m593.1 41.5h46.5v14.8h-46.5z"/>
			<path id="Layer" class="s0" d="m646.2 89.5h-53.1c-2 0-4.3-0.4-6.7-1.1-2.4-0.7-4.7-1.9-6.7-3.5-2.1-1.6-3.8-3.8-5.2-6.4-1.4-2.6-2.1-5.8-2.1-9.7v-53.1c0-1 0.2-2 0.6-2.9 0.4-0.9 0.9-1.7 1.6-2.4 0.7-0.7 1.4-1.2 2.4-1.6 0.9-0.4 1.9-0.6 2.9-0.6h66.3v14.8h-59v45.8c0 1.9 0.5 3.4 1.5 4.4q1.5 1.5 4.5 1.5h53z"/>
			<path id="Layer" class="s0" d=""/>
			<g id="Layer">
				<g id="Layer">
					<path id="Layer" fill-rule="evenodd" class="s1" d="m381.4 127.3c0-8.8 7.2-16 16-16h32.1c8.8 0 16 7.2 16 16v32.1c0 8.8-7.2 16-16 16h-32.1c-8.8 0-16-7.2-16-16zm15.6 32.5h32.8v-32.8h-32.8z"/>
					<path id="Layer" class="s1" d="m464.5 154.5c-6.2 0-11.2-5-11.2-11.2 0-6.2 5-11.2 11.2-11.2 6.2 0 11.2 5 11.2 11.2 0 6.2-5 11.2-11.2 11.2z"/>
				</g>
				<g id="Layer">
					<path id="Layer" fill-rule="evenodd" class="s1" d="m483.7 127.3c0-8.8 7.2-16 16-16h32.1c8.8 0 16 7.2 16 16v32.1c0 8.8-7.2 16-16 16h-32.1c-8.8 0-16-7.2-16-16zm15.6 32.5h32.8v-32.8h-32.8z"/>
					<path id="Layer" class="s1" d="m566.7 154.5c-6.2 0-11.2-5-11.2-11.2 0-6.2 5-11.2 11.2-11.2 6.2 0 11.2 5 11.2 11.2 0 6.2-5 11.2-11.2 11.2z"/>
				</g>
				<g id="Layer">
					<path id="Layer" fill-rule="evenodd" class="s1" d="m585.9 127.3c0-8.8 7.2-16 16-16h32.1c8.8 0 16 7.2 16 16v32.1c0 8.8-7.2 16-16 16h-32.1c-8.8 0-16-7.2-16-16zm15.6 32.5h32.8v-32.8h-32.8z"/>
				</g>
			</g>
		</g>
	</g>
</svg>